<svg width="130" height="46" xmlns="http://www.w3.org/2000/svg"><g fill="none" fill-rule="evenodd"><path d="M10.874 11.426H4.986V5.715h5.888c1.547 0 2.856 1.307 2.856 2.855a2.86 2.86 0 01-2.856 2.856zm0-7.52H3.178v9.329h7.696a4.671 4.671 0 004.664-4.665 4.67 4.67 0 00-4.664-4.663z" fill="#EA8A48"/><g fill="#EA8A48"><path d="M12.657 22.12H4.951v-5.71h7.706a2.856 2.856 0 010 5.71zm0-7.517H3.142v9.326h9.515a4.668 4.668 0 004.663-4.663 4.668 4.668 0 00-4.663-4.663z"/><path d="M12.657 25.298H1.81V2.538h9.065a6.04 6.04 0 016.034 6.032 6.048 6.048 0 01-.973 3.315l-.967 1.518 1.415 1.115a6.015 6.015 0 012.305 4.748 6.038 6.038 0 01-6.03 6.032zm4.845-12.201l-.128-.1.087-.14a7.96 7.96 0 001.255-4.287c0-4.323-3.517-7.84-7.842-7.84H0v26.376h12.657c4.324 0 7.84-3.517 7.84-7.84a7.815 7.815 0 00-2.995-6.17z"/></g><path d="M29.66 5.715h4.635a4.643 4.643 0 014.638 4.639 4.642 4.642 0 01-4.638 4.636H29.66V5.715zm11.082 4.639a6.453 6.453 0 00-6.447-6.447H27.85v12.891h6.444a6.453 6.453 0 006.447-6.444z" fill="#EA8A48"/><path d="M27.851 18.167v7.13h-1.369V2.539h7.813c4.31 0 7.815 3.506 7.815 7.816 0 2.71-1.384 5.197-3.704 6.659l-1.713 1.078 4.722 7.207h-1.621l-4.67-7.131H27.85zm10.963 8.94h5.95l-5.551-8.465.157-.098c2.849-1.794 4.549-4.856 4.549-8.19C43.919 5.048 39.6.73 34.295.73h-9.62v26.376h4.985v-7.13h4.485l4.669 7.13zM50.312 25.298h1.368V2.538h-1.368v22.76zm-1.81 1.808h4.987V.73h-4.986v26.376zM70.913 2.538a11.38 11.38 0 018.233 3.533l.137.144-1.085.84-.113-.115a10.093 10.093 0 00-7.172-3.033c-5.518 0-10.011 4.492-10.011 10.012 0 5.518 4.493 10.01 10.011 10.01 2.434 0 4.799-.896 6.659-2.525l.679-.593v-4.427h-6.24v-1.368h7.608v6.233l-.04.051a11.328 11.328 0 01-8.666 3.998c-6.273 0-11.38-5.105-11.38-11.379 0-6.276 5.107-11.38 11.38-11.38zm0 24.568c4.18 0 8.008-1.903 10.515-5.227v-8.67H70.204v4.983h6.238v1.797l-.059.054c-1.536 1.339-3.474 2.078-5.47 2.078-4.524 0-8.202-3.68-8.202-8.202 0-4.524 3.678-8.204 8.202-8.204a8.251 8.251 0 016.965 3.873l3.952-3.052A13.136 13.136 0 0070.913.73c-7.274 0-13.19 5.917-13.19 13.19 0 7.27 5.916 13.186 13.19 13.186zM88.513 17.276v8.022h-1.372V2.538h1.372v13.37h13.37V2.537h1.37v22.76h-1.37v-8.022h-13.37zm16.548 9.83V.73h-4.985v13.369h-9.754V.729h-4.989v26.377h4.989v-8.022h9.754v8.022h4.985zM127.364 3.907h-7.372v21.39h-1.369V3.908h-7.373V2.538h16.114v1.369zM129.173.73h-19.728v4.985h7.37v21.391h4.985V5.715h7.373V.73z" fill="#EA8A48"/><path fill="#313330" d="M50.137 32.57h-1.202v9.582l-9.64-9.191v12.377h1.202v-9.58l9.64 9.206V32.57M62.255 33.774V32.57H53.34v12.768h8.915v-1.203h-7.71v-4.874h4.04v-1.204h-4.04v-4.283h7.71M74.05 32.57h-9.1v1.204h3.948v11.564H70.1V33.774h3.95V32.57M84.418 36.594l3.21 8.372L92.37 32.57h-1.286l-3.469 9.033-3.198-8.383-3.22 8.383-3.45-9.033h-1.287l4.746 12.396 3.21-8.372M99.315 44.135a5.188 5.188 0 01-5.181-5.18 5.187 5.187 0 015.181-5.18 5.187 5.187 0 015.181 5.18 5.187 5.187 0 01-5.18 5.18zm0-11.565a6.394 6.394 0 00-6.387 6.385c0 3.519 2.865 6.383 6.387 6.383 3.52 0 6.387-2.864 6.387-6.383a6.394 6.394 0 00-6.387-6.385zM109.373 40.28v-6.506h3.252a3.257 3.257 0 013.255 3.252 3.258 3.258 0 01-3.255 3.253h-3.252zm6.089 5.058h1.444l-2.709-4.119.372-.18a4.444 4.444 0 002.512-4.013 4.462 4.462 0 00-4.456-4.456h-4.457v12.768h1.205v-3.853h3.561l2.528 3.853zM127.93 45.338h1.425l-4.947-7.91 4.45-4.858h-1.643l-6.244 6.813V32.57h-1.205v12.768h1.205v-4.193l2.575-2.805 4.385 6.998"/></g></svg>